PathFileType	4	(X/Y/Z)	/Users/itak/Documents/Research/Walk-IL/dataset/trc/00024_00004.trc
DataRate	CameraRate	NumFrames	NumMarkers	Units	OrigDataRate	OrigDataStartFrame	OrigNumFrames
100.000000	100.000000	4	53	mm	100.000000	95	764
Frame#	Time	RPSI			LPSI			L3			STRN			T10			C7			CLAV			RBAK			LBAK			LSHO			LUPA			LAEL			LAOL			LWTS			LWPS			LFRA			LIFD			LHPS			LHTS			RSHO			RUPA			RAEL			RAOL			RWTS			RWPS			RFRA			RIFD			RHTS			RHPS			RBHD			LFHD			RFHD			LBHD			LHIP			RHIP			RASI			LASI			LKNE			LTHI			LANK			LTIP			LTOE			LMT1			LMT5			LHEE			RKNE			RTHI			RANK			RTIP			RTOE			RMT1			RMT5			RHEE			
		X1	Y1	Z1	X2	Y2	Z2	X3	Y3	Z3	X4	Y4	Z4	X5	Y5	Z5	X6	Y6	Z6	X7	Y7	Z7	X8	Y8	Z8	X9	Y9	Z9	X10	Y10	Z10	X11	Y11	Z11	X12	Y12	Z12	X13	Y13	Z13	X14	Y14	Z14	X15	Y15	Z15	X16	Y16	Z16	X17	Y17	Z17	X18	Y18	Z18	X19	Y19	Z19	X20	Y20	Z20	X21	Y21	Z21	X22	Y22	Z22	X23	Y23	Z23	X24	Y24	Z24	X25	Y25	Z25	X26	Y26	Z26	X27	Y27	Z27	X28	Y28	Z28	X29	Y29	Z29	X30	Y30	Z30	X31	Y31	Z31	X32	Y32	Z32	X33	Y33	Z33	X34	Y34	Z34	X35	Y35	Z35	X36	Y36	Z36	X37	Y37	Z37	X38	Y38	Z38	X39	Y39	Z39	X40	Y40	Z40	X41	Y41	Z41	X42	Y42	Z42	X43	Y43	Z43	X44	Y44	Z44	X45	Y45	Z45	X46	Y46	Z46	X47	Y47	Z47	X48	Y48	Z48	X49	Y49	Z49	X50	Y50	Z50	X51	Y51	Z51	X52	Y52	Z52	X53	Y53	Z53	

96	0.9500000000000001	-33.61227416992188	1055.893676757812	1007.062805175781	-42.00616073608398	1040.664306640625	845.0100708007812	-41.98503875732422	1108.14208984375	917.5527954101562	195.6099090576172	1288.686157226562	909.00830078125	-55.5084228515625	1255.953735351562	917.8512573242188	9.139148712158203	1519.211059570312	896.4675903320312	159.0260772705078	1416.148315429688	900.2728881835938	-50.86844635009766	1390.31640625	983.509521484375	-16.71424293518066	1475.65380859375	803.4646606445312	80.01255035400391	1472.082275390625	724.6386108398438	30.54740524291992	1349.326293945312	654.9146118164062	0.3453184366226196	1134.384399414062	636.4932250976562	-37.87821197509766	1127.70458984375	735.8137817382812	76.51908874511719	875.0536499023438	677.1730346679688	-8.870181083679199	865.548583984375	655.9046020507812	0.939333438873291	1017.227844238281	630.4921875	90.25299072265625	685.6570434570312	698.7036743164062	15.96095848083496	771.88330078125	654.502685546875	86.51841735839844	777.1654052734375	664.2870483398438	88.28657531738281	1506.57275390625	1065.810424804688	70.45841979980469	1444.1796875	1142.976196289062	11.48651123046875	1182.63720703125	1188.3876953125	4.268050193786621	1148.72705078125	1094.338256835938	113.181266784668	906.9859008789062	1175.326904296875	50.22027969360352	904.58349609375	1242.759521484375	17.88641929626465	1107.019897460938	1209.537475585938	115.4524383544922	718.1571655273438	1179.25390625	135.5000610351562	795.9592895507812	1197.24658203125	82.41087341308594	801.74609375	1249.0078125	64.56475830078125	1694.286865234375	845.9071044921875	281.7248229980469	1676.82373046875	855.879638671875	229.5518493652344	1672.5185546875	772.7911987304688	146.13427734375	1696.163818359375	965.212646484375	57.76853942871094	938.9378051757812	730.3342895507812	72.10733032226562	936.55078125	1106.099609375	179.5097045898438	965.564208984375	1034.299560546875	168.6547393798828	986.542724609375	798.6580200195312	272.04443359375	548.4703979492188	756.6089477539062	183.1101531982422	656.6921997070312	730.9193725585938	318.1475830078125	51.54457092285156	801.1998291015625	262.9786071777344	291.1651611328125	770.056396484375	534.3991088867188	110.4710540771484	791.2415771484375	486.3326110839844	101.992301940918	826.6245727539062	423.329345703125	84.89069366455078	743.168701171875	270.4985656738281	45.39946746826172	871.8488159179688	12.4226770401001	506.9342041015625	1057.922485351562	74.26152801513672	769.90771484375	1100.605712890625	-191.7198486328125	47.37740325927734	1018.643859863281	-36.52080917358398	387.3427124023438	1054.210693359375	43.4752311706543	44.04470825195312	997.3822021484375	-16.53562355041504	50.97047424316406	962.7684326171875	-44.48834609985352	42.9141845703125	1056.413818359375	-243.2198791503906	50.91641616821289	969.2623291015625	
97	0.96	-27.65794563293457	1054.352905273438	1005.348815917969	-35.86759948730469	1038.852783203125	843.3082885742188	-35.92311096191406	1106.58447265625	915.7553100585938	201.7942962646484	1286.917602539062	906.951904296875	-49.34845733642578	1254.4052734375	915.9266967773438	15.52394390106201	1517.578002929688	894.1695556640625	165.3002166748047	1414.3828125	898.0361938476562	-44.56784820556641	1388.874755859375	981.43408203125	-10.40473651885986	1473.864013671875	801.258056640625	86.27558898925781	1470.112548828125	722.3643798828125	36.48206329345703	1347.333984375	652.9073486328125	5.620300769805908	1132.4794921875	634.8690795898438	-32.16862869262695	1125.958251953125	734.47509765625	81.62318420410156	873.0994262695312	675.4476318359375	-3.93026065826416	863.6448364257812	654.6920166015625	5.955729484558105	1015.319580078125	628.98046875	95.18300628662109	683.7086181640625	697.1449584960938	20.8431339263916	769.7477416992188	653.3342895507812	91.38295745849609	775.18310546875	662.6441040039062	94.75315093994141	1505.098266601562	1063.47998046875	76.88785552978516	1442.847045898438	1140.754638671875	17.84902000427246	1181.464599609375	1186.8251953125	10.46437931060791	1147.328857421875	1092.83642578125	119.4184875488281	905.7686767578125	1174.267944335938	56.51955795288086	903.5043334960938	1241.75	24.19180870056152	1105.899169921875	1208.099365234375	121.7020111083984	716.9400024414062	1178.600341796875	141.7526245117188	794.8161010742188	1196.388061523438	88.69720458984375	800.6722412109375	1248.206420898438	70.87819671630859	1692.412841796875	843.4955444335938	288.0659484863281	1675.103515625	853.1309814453125	235.6977691650391	1670.7138671875	770.1206665039062	152.5864105224609	1694.418090820312	962.6719970703125	64.05135345458984	937.0387573242188	728.8367919921875	77.9547119140625	935.2364501953125	1104.604248046875	185.461669921875	964.0350952148438	1032.896118164062	174.8492584228516	984.80224609375	797.185546875	279.0940246582031	547.9578247070312	754.49169921875	189.6869201660156	655.3070068359375	729.045166015625	333.7851867675781	52.05264282226562	795.7169799804688	273.9342346191406	290.8447875976562	766.5049438476562	549.03759765625	114.5474243164062	783.9451293945312	501.4141845703125	105.1293716430664	819.777587890625	437.8470153808594	87.44402313232422	736.8423461914062	286.9330139160156	44.73078918457031	866.7667236328125	16.65033149719238	505.9043273925781	1057.242919921875	79.55887603759766	768.7374267578125	1099.2607421875	-191.5647583007812	47.78363418579102	1018.540161132812	-33.23810577392578	386.5000305175781	1053.593627929688	43.50931549072266	43.95571517944336	997.3512573242188	-16.45644950866699	50.86992645263672	962.7505493164062	-44.5080680847168	42.88287353515625	1056.367797851562	-243.1012420654297	51.67373657226562	969.1376953125	
98	0.97	-21.57683563232422	1052.779418945312	1003.540832519531	-29.58119773864746	1037.007934570312	841.5086059570312	-29.70499610900879	1104.989501953125	913.867919921875	208.1178283691406	1285.092651367188	904.7958374023438	-43.04869842529297	1252.817016601562	913.895263671875	22.06545257568359	1515.909423828125	891.75390625	171.7228088378906	1412.567016601562	895.6853637695312	-38.12397766113281	1387.400146484375	979.2423095703125	-3.940058946609497	1472.021240234375	798.93603515625	92.69145965576172	1468.072021484375	719.9698486328125	42.56425094604492	1345.256591796875	650.7861328125	11.0792293548584	1130.491577148438	633.1451416015625	-26.27559471130371	1124.125244140625	733.0513916015625	86.98870086669922	871.0872192382812	673.6573486328125	1.248282909393311	861.66162109375	653.3952026367188	11.18564224243164	1013.323547363281	627.3790893554688	100.3998184204102	681.7017822265625	695.5354614257812	25.98854637145996	767.5635375976562	652.0547485351562	96.51052093505859	773.142578125	660.9479370117188	101.3702392578125	1503.58984375	1061.029296875	83.47193145751953	1441.476684570312	1138.416381835938	24.35859298706055	1180.263916015625	1185.158813476562	16.80534553527832	1145.89111328125	1091.239501953125	125.7713470458984	904.5040893554688	1173.127197265625	62.94754028320312	902.4002075195312	1240.66455078125	30.66092872619629	1104.75439453125	1206.574584960938	128.0796508789062	715.6888427734375	1177.879638671875	148.1106872558594	793.630126953125	1195.4609375	95.10947418212891	799.5729370117188	1247.337036132812	77.30999755859375	1690.482543945312	840.9651489257812	294.5193481445312	1673.380126953125	850.2576293945312	241.9675445556641	1668.890258789062	767.3224487304688	159.1544799804688	1692.631713867188	960.0079345703125	70.49375915527344	935.1046142578125	727.2615966796875	83.90438079833984	933.883056640625	1103.048583984375	191.5245208740234	962.4585571289062	1031.44091796875	181.1845855712891	982.9943237304688	795.6517944335938	286.2344360351562	547.3572387695312	752.244140625	196.4207000732422	653.8837280273438	727.0720825195312	348.85009765625	52.51690292358398	790.2108154296875	284.6505126953125	290.4674377441406	762.85986328125	563.0656127929688	118.4298400878906	776.5106811523438	515.9283447265625	108.1258544921875	812.8302001953125	451.7363891601562	89.84040832519531	730.44580078125	302.8319091796875	44.08949661254883	861.665283203125	20.95730781555176	504.8515625	1056.560791015625	84.93258666992188	767.5386962890625	1097.86572265625	-191.3952789306641	48.24561309814453	1018.464294433594	-29.89987182617188	385.6535949707031	1052.987548828125	43.53468704223633	43.89543151855469	997.330810546875	-16.37995529174805	50.79096984863281	962.7277221679688	-44.52207183837891	42.85710144042969	1056.324462890625	-243.0061798095703	52.53210830688477	969.0526733398438	
99	0.98	-15.36821460723877	1051.188842773438	1001.63427734375	-23.14650726318359	1035.152465820312	839.6065673828125	-23.32252311706543	1103.369873046875	911.8900146484375	214.5919647216797	1283.225952148438	902.5408935546875	-36.59908294677734	1251.2001953125	911.7561645507812	28.76191902160645	1514.217041015625	889.2147827148438	178.2996520996094	1410.714111328125	893.21923828125	-31.53655052185059	1385.903686523438	976.9274291992188	2.681118249893188	1470.140991210938	796.4937133789062	99.26071166992188	1465.972290039062	717.4510498046875	48.79689407348633	1343.103759765625	648.546875	16.7315502166748	1128.43115234375	631.3173828125	-20.19403457641602	1122.219970703125	731.5292358398438	92.60943603515625	869.0218505859375	671.8027954101562	6.662261962890625	859.6140747070312	652.0039672851562	16.64055633544922	1011.249450683594	625.6865844726562	105.8874969482422	679.64208984375	693.8761596679688	31.38625526428223	765.3575439453125	650.6539306640625	101.8908538818359	771.0468139648438	659.1966552734375	108.1335830688477	1502.062255859375	1058.454345703125	90.21099853515625	1440.083862304688	1135.956909179688	31.01718711853027	1179.049194335938	1183.37890625	23.30118370056152	1144.432495117188	1089.539306640625	132.2394866943359	903.2059936523438	1171.899536132812	69.50065612792969	901.2879638671875	1239.497680664062	37.29529190063477	1103.598022460938	1204.956665039062	134.5753784179688	714.4138793945312	1177.09228515625	154.576171875	792.4058837890625	1194.464599609375	101.6349716186523	798.4624633789062	1246.3984375	83.86115264892578	1688.510620117188	838.3154907226562	301.08544921875	1671.664184570312	847.246337890625	248.359130859375	1667.057983398438	764.388671875	165.8506164550781	1690.82177734375	957.2130737304688	77.09415435791016	933.153076171875	725.6082763671875	89.96017456054688	932.5067749023438	1101.425170898438	197.7040100097656	960.8469848632812	1029.9326171875	187.6694183349609	981.1328125	794.0610961914062	293.4695129394531	546.675537109375	749.8555297851562	203.31591796875	652.4417724609375	724.9918823242188	363.2709350585938	52.89545059204102	784.7242431640625	295.1161499023438	290.01953125	759.1386108398438	576.4287719726562	122.0349426269531	768.989501953125	529.811767578125	110.9115371704102	805.82421875	464.9335327148438	92.01638031005859	724.02490234375	318.1127014160156	43.45294189453125	856.5843505859375	25.33402442932129	503.7935180664062	1055.859741210938	90.37504577636719	766.322509765625	1096.408203125	-191.2219085693359	48.79010009765625	1018.404541015625	-26.51723289489746	384.8178100585938	1052.3828125	43.5354118347168	43.8618049621582	997.320068359375	-16.30873870849609	50.73301696777344	962.7008666992188	-44.52342224121094	42.83891677856445	1056.286010742188	-242.92431640625	53.50524520874023	969.0087890625	
